<?xml version="1.0" standalone="no"?>
<!DOCTYPE svg PUBLIC "-//W3C//DTD SVG 1.1//EN"
  "http://www.w3.org/Graphics/SVG/1.1/DTD/svg11.dtd">
<svg version="1.1" xmlns="http://www.w3.org/2000/svg" xmlns:xlink="http://www.w3.org/1999/xlink" width="1144" height="1414" viewBox="-32 -32 1144 1414" id="ccdiagram"><filter id="grayscale"><feColorMatrix type="matrix" values="0.3333 0.3333 0.3333 0 0 0.3333 0.3333 0.3333 0 0 0.3333 0.3333 0.3333 0 0 0 0 0 1 0"></feColorMatrix></filter><defs><style type="text/css">@import url('https://fonts.googleapis.com/css?family=Open+Sans:400,700|Inconsolata:400');</style></defs><g><g pointer-events="auto"></g><g pointer-events="auto"></g><g></g><g pointer-events="auto"></g><g></g><g pointer-events="auto"></g><g pointer-events="none"></g><g pointer-events="auto"><g><g cursor="cell"><line x1="495" y1="450" x2="325" y2="620" stroke="red" stroke-width="8" opacity="0"></line><line x1="495" y1="450" x2="325" y2="620" stroke="#000000" stroke-width="2" stroke-linecap="round"></line><polygon points="315 630, 340 621, 327 618, 324 605, 315 630" stroke-linejoin="round" fill="#000000" stroke="#000000" stroke-width="1"></polygon></g></g><g><g cursor="cell"><line x1="495" y1="450" x2="665" y2="620" stroke="red" stroke-width="8" opacity="0"></line><line x1="495" y1="450" x2="665" y2="620" stroke="#000000" stroke-width="2" stroke-linecap="round"></line><polygon points="675 630, 666 605, 663 618, 650 621, 675 630" stroke-linejoin="round" fill="#000000" stroke="#000000" stroke-width="1"></polygon></g></g><g><g cursor="cell"><line x1="855" y1="630" x2="551" y2="413" stroke="red" stroke-width="8" opacity="0"></line><line x1="855" y1="630" x2="551" y2="413" stroke="#000000" stroke-width="2" stroke-linecap="round"></line><polygon points="540 405, 553 429, 554 415, 567 410, 540 405" stroke-linejoin="round" fill="#000000" stroke="#000000" stroke-width="1"></polygon></g></g><g><g cursor="cell"><line x1="315" y1="720" x2="444" y2="978" stroke="red" stroke-width="8" opacity="0"></line><line x1="315" y1="720" x2="444" y2="978" stroke="#000000" stroke-width="2" stroke-linecap="round"></line><polygon points="450 990, 449 963, 442 974, 429 973, 450 990" stroke-linejoin="round" fill="#000000" stroke="#000000" stroke-width="1"></polygon></g></g><g><g cursor="cell"><line x1="527" y1="405" x2="450" y2="405" stroke="red" stroke-width="8" opacity="0"></line><line x1="527" y1="405" x2="450" y2="405" stroke="#000000" stroke-width="2" stroke-linecap="round"></line><polygon points="540 405, 516 394, 522 405, 516 416, 540 405" stroke-linejoin="round" fill="#000000" stroke="#000000" stroke-width="1"></polygon></g></g><g><g cursor="cell"><line x1="855" y1="720" x2="550" y2="1025" stroke="red" stroke-width="8" opacity="0"></line><line x1="855" y1="720" x2="550" y2="1025" stroke="#000000" stroke-width="2" stroke-linecap="round"></line><polygon points="540 1035, 565 1026, 552 1023, 549 1010, 540 1035" stroke-linejoin="round" fill="#000000" stroke="#000000" stroke-width="1"></polygon></g></g><g><g cursor="cell"><line x1="495" y1="990" x2="495" y2="734" stroke="red" stroke-width="8" opacity="0"></line><line x1="495" y1="990" x2="495" y2="734" stroke="#000000" stroke-width="2" stroke-linecap="round"></line><polygon points="495 720, 484 744, 495 738, 506 744, 495 720" stroke-linejoin="round" fill="#000000" stroke="#000000" stroke-width="1"></polygon></g></g><g><g cursor="cell"><line x1="450" y1="1035" x2="145" y2="730" stroke="red" stroke-width="8" opacity="0"></line><line x1="450" y1="1035" x2="145" y2="730" stroke="#000000" stroke-width="2" stroke-linecap="round"></line><polygon points="135 720, 144 745, 147 732, 160 729, 135 720" stroke-linejoin="round" fill="#000000" stroke="#000000" stroke-width="1"></polygon></g></g><g><g cursor="cell"><line x1="675" y1="720" x2="546" y2="978" stroke="red" stroke-width="8" opacity="0"></line><line x1="675" y1="720" x2="546" y2="978" stroke="#000000" stroke-width="2" stroke-linecap="round"></line><polygon points="540 990, 561 973, 548 974, 541 963, 540 990" stroke-linejoin="round" fill="#000000" stroke="#000000" stroke-width="1"></polygon></g></g><g><g cursor="cell"><line x1="135" y1="720" x2="440" y2="1025" stroke="red" stroke-width="8" opacity="0"></line><line x1="135" y1="720" x2="440" y2="1025" stroke="#000000" stroke-width="2" stroke-linecap="round"></line><polygon points="450 1035, 441 1010, 438 1023, 425 1026, 450 1035" stroke-linejoin="round" fill="#000000" stroke="#000000" stroke-width="1"></polygon></g></g><g><g cursor="cell"><line x1="495" y1="450" x2="495" y2="617" stroke="red" stroke-width="8" opacity="0"></line><line x1="495" y1="450" x2="495" y2="617" stroke="#000000" stroke-width="2" stroke-linecap="round"></line><polygon points="495 630, 506 606, 495 612, 484 606, 495 630" stroke-linejoin="round" fill="#000000" stroke="#000000" stroke-width="1"></polygon></g></g><g><g cursor="cell"><line x1="315" y1="630" x2="485" y2="460" stroke="red" stroke-width="8" opacity="0"></line><line x1="315" y1="630" x2="485" y2="460" stroke="#000000" stroke-width="2" stroke-linecap="round"></line><polygon points="495 450, 470 459, 483 462, 486 475, 495 450" stroke-linejoin="round" fill="#000000" stroke="#000000" stroke-width="1"></polygon></g></g><g><g cursor="cell"><line x1="540" y1="1035" x2="845" y2="730" stroke="red" stroke-width="8" opacity="0"></line><line x1="540" y1="1035" x2="845" y2="730" stroke="#000000" stroke-width="2" stroke-linecap="round"></line><polygon points="855 720, 830 729, 843 732, 846 745, 855 720" stroke-linejoin="round" fill="#000000" stroke="#000000" stroke-width="1"></polygon></g></g><g><g cursor="cell"><line x1="450" y1="990" x2="321" y2="732" stroke="red" stroke-width="8" opacity="0"></line><line x1="450" y1="990" x2="321" y2="732" stroke="#000000" stroke-width="2" stroke-linecap="round"></line><polygon points="315 720, 316 747, 323 736, 336 737, 315 720" stroke-linejoin="round" fill="#000000" stroke="#000000" stroke-width="1"></polygon></g></g><g><g cursor="cell"><line x1="495" y1="630" x2="495" y2="464" stroke="red" stroke-width="8" opacity="0"></line><line x1="495" y1="630" x2="495" y2="464" stroke="#000000" stroke-width="2" stroke-linecap="round"></line><polygon points="495 450, 484 474, 495 468, 506 474, 495 450" stroke-linejoin="round" fill="#000000" stroke="#000000" stroke-width="1"></polygon></g></g><g><g cursor="cell"><line x1="495" y1="720" x2="495" y2="977" stroke="red" stroke-width="8" opacity="0"></line><line x1="495" y1="720" x2="495" y2="977" stroke="#000000" stroke-width="2" stroke-linecap="round"></line><polygon points="495 990, 506 966, 495 972, 484 966, 495 990" stroke-linejoin="round" fill="#000000" stroke="#000000" stroke-width="1"></polygon></g></g><g><g cursor="cell"><line x1="135" y1="630" x2="439" y2="413" stroke="red" stroke-width="8" opacity="0"></line><line x1="135" y1="630" x2="439" y2="413" stroke="#000000" stroke-width="2" stroke-linecap="round"></line><polygon points="450 405, 423 410, 436 415, 437 429, 450 405" stroke-linejoin="round" fill="#000000" stroke="#000000" stroke-width="1"></polygon></g></g><g><g cursor="cell"><line x1="540" y1="405" x2="844" y2="622" stroke="red" stroke-width="8" opacity="0"></line><line x1="540" y1="405" x2="844" y2="622" stroke="#000000" stroke-width="2" stroke-linecap="round"></line><polygon points="855 630, 842 606, 841 620, 828 625, 855 630" stroke-linejoin="round" fill="#000000" stroke="#000000" stroke-width="1"></polygon></g></g><g><g cursor="cell"><line x1="540" y1="990" x2="669" y2="732" stroke="red" stroke-width="8" opacity="0"></line><line x1="540" y1="990" x2="669" y2="732" stroke="#000000" stroke-width="2" stroke-linecap="round"></line><polygon points="675 720, 654 737, 667 736, 674 747, 675 720" stroke-linejoin="round" fill="#000000" stroke="#000000" stroke-width="1"></polygon></g></g><g><g cursor="cell"><line x1="675" y1="630" x2="505" y2="460" stroke="red" stroke-width="8" opacity="0"></line><line x1="675" y1="630" x2="505" y2="460" stroke="#000000" stroke-width="2" stroke-linecap="round"></line><polygon points="495 450, 504 475, 507 462, 520 459, 495 450" stroke-linejoin="round" fill="#000000" stroke="#000000" stroke-width="1"></polygon></g></g><g><g cursor="cell"><line x1="495" y1="180" x2="495" y2="347" stroke="red" stroke-width="8" opacity="0"></line><line x1="495" y1="180" x2="495" y2="347" stroke="#000000" stroke-width="2" stroke-linecap="round"></line><polygon points="495 360, 506 336, 495 342, 484 336, 495 360" stroke-linejoin="round" fill="#000000" stroke="#000000" stroke-width="1"></polygon></g></g><g><g cursor="cell"><line x1="495" y1="360" x2="495" y2="194" stroke="red" stroke-width="8" opacity="0"></line><line x1="495" y1="360" x2="495" y2="194" stroke="#000000" stroke-width="2" stroke-linecap="round"></line><polygon points="495 180, 484 204, 495 198, 506 204, 495 180" stroke-linejoin="round" fill="#000000" stroke="#000000" stroke-width="1"></polygon></g></g><g><g cursor="cell"><line x1="450" y1="405" x2="146" y2="622" stroke="red" stroke-width="8" opacity="0"></line><line x1="450" y1="405" x2="146" y2="622" stroke="#000000" stroke-width="2" stroke-linecap="round"></line><polygon points="135 630, 162 625, 149 620, 148 606, 135 630" stroke-linejoin="round" fill="#000000" stroke="#000000" stroke-width="1"></polygon></g></g></g><g pointer-events="auto"><g opacity="1"><g id="a262da30-38ed-49ff-983a-de745e55ebfc" transform="translate(0 0)"><svg x="450" y="90" height="90" id="svg13" width="90" version="1.1"><defs id="defs4"></defs><g id="Working" transform="matrix(1.9149 0 0 1.9149 -2.872 -2.852)"><circle id="path819" cx="25.03" cy="13.644" fill="#232f3e" fill-opacity="1" opacity=".05" r="10.787" stroke="none" stroke-opacity="1" stroke-width=".522"></circle><path class="cls-1" id="path8-6" d="M47.5 48.44h-45a1 1 0 0 1-1-1v-3a22.73 22.73 0 0 1 17.36-22.1 1.06 1.06 0 0 1 .72.09 11.29 11.29 0 0 0 10.82 0 1 1 0 0 1 .71-.09A22.73 22.73 0 0 1 48.5 44.45v3a1 1 0 0 1-1 .99z" fill="#232f3e" fill-opacity="1" opacity=".05" stroke-width="1"></path><path class="cls-1" id="path8" d="M47.5 48.44h-45a1 1 0 0 1-1-1v-3a22.73 22.73 0 0 1 17.36-22.1 1.06 1.06 0 0 1 .72.09 11.29 11.29 0 0 0 10.82 0 1 1 0 0 1 .71-.09A22.73 22.73 0 0 1 48.5 44.45v3a1 1 0 0 1-1 .99zm-44-2h43v-2A20.71 20.71 0 0 0 31 24.39a13.51 13.51 0 0 1-6 1.43 13.21 13.21 0 0 1-6-1.43A20.72 20.72 0 0 0 3.5 44.45z" fill="#232f3e" fill-opacity="1"></path><path class="cls-1" id="path10" d="M25 25.75a12.18 12.18 0 0 1-5.9-1.5 12.13 12.13 0 1 1 18.06-10.58 12 12 0 0 1-6.32 10.58 12.38 12.38 0 0 1-5.84 1.5zm0-22.19a10.08 10.08 0 0 0-5 18.94 10.33 10.33 0 0 0 9.85 0A10.08 10.08 0 0 0 25 3.56z" fill="#232f3e" fill-opacity="1"></path></g></svg></g></g><g opacity="1"><g id="1b5f8a1f-99dc-4a72-8b66-4711c48a5912" transform="translate(0 0)"><svg x="450" y="360" height="90" id="svg25" width="90" version="1.1"><defs id="defs4"></defs><g id="Reference" fill-opacity="1" transform="scale(1.2)"><path id="Purple_Light_BG" d="M0 0h75v75H0z" fill="#693cc5" data-name="Purple Light BG"></path><g id="Product_Icon" fill="#ffffff" data-name="Product Icon"><path class="cls-2" id="path9" d="M48.51 61.5a1 1 0 0 1-.59-.19 1 1 0 0 1-.42-.81v-46a1 1 0 0 1 .48-.85 1 1 0 0 1 1-.05l13 6.35a1 1 0 0 1 .56.89v35.34a1 1 0 0 1-.69 1l-13 4.32a1.19 1.19 0 0 1-.34 0zm1-45.39v43l11-3.65v-34z" fill="#ffffff" fill-opacity="1"></path><path class="cls-2" id="path11" d="M26.5 61.5a1.19 1.19 0 0 1-.32 0l-13-4.32a1 1 0 0 1-.68-1V20.84a1 1 0 0 1 .56-.89l13-6.35a1 1 0 0 1 1 .05 1 1 0 0 1 .47.85v46a1 1 0 0 1-.42.81.94.94 0 0 1-.61.19zm-12-6l11 3.65v-43l-11 5.37z" fill="#ffffff" fill-opacity="1"></path><path class="cls-2" id="path13" d="M47.5 27.5h-3v-2h3zm-6 0h-3v-2h3zm-6 0h-3v-2h3zm-6 0h-3v-2h3z" fill="#ffffff" fill-opacity="1"></path><path class="cls-2" id="path15" d="M47.5 49.5h-3v-2h3zm-6 0h-3v-2h3zm-6 0h-3v-2h3zm-6 0h-3v-2h3z" fill="#ffffff" fill-opacity="1"></path><path class="cls-2" id="path17" d="M33.11 40.94l-3.76-3.21a1 1 0 0 1 0-1.52L33.1 33l1.3 1.52L31.54 37l2.86 2.45z" fill="#ffffff" fill-opacity="1"></path><path class="cls-2" id="path19" d="M41.9 40.94l-1.3-1.52L43.46 37l-2.87-2.44 1.3-1.56 3.76 3.2a1 1 0 0 1 0 1.52z" fill="#ffffff" fill-opacity="1"></path><path class="cls-2" id="rect21" d="M31.29 36.5H43.7v2H31.29z" fill="#ffffff" fill-opacity="1" transform="rotate(-71.32 37.488 37.496)"></path></g></g></svg></g></g><g opacity="1"><g id="9baddd0c-3333-4144-b087-8d7a8a7f5978" transform="translate(0 0)"><svg x="90" y="630" height="90" id="svg15" width="90" version="1.1"><defs id="defs4"></defs><g id="Reference" fill-opacity="1" transform="scale(1.2)"><path id="Orange_Light_BG" d="M0 0h75v75H0z" fill="#d86613" data-name="Orange Light BG"></path><g id="Product_Icon" fill="#ffffff" data-name="Product Icon"><path class="cls-2" id="path9" d="M60.5 62.5H48.18a1 1 0 0 1-.9-.57L29.86 25.5h-7.37a1 1 0 0 1-1-1v-11a1 1 0 0 1 1-1h15.4a1 1 0 0 1 .9.57L56.13 49.5h4.37a1 1 0 0 1 1 1v11a1 1 0 0 1-1 1zm-11.69-2H59.5v-9h-4a1 1 0 0 1-.9-.57L37.26 14.5H23.5v9h7a1 1 0 0 1 .9.57z" fill="#ffffff" fill-opacity="1"></path><path class="cls-2" id="path11" d="M27.48 62.5h-13a1 1 0 0 1-.85-.47 1 1 0 0 1-.05-1l13.6-28.41a1 1 0 0 1 .9-.57 1 1 0 0 1 .9.56L35.49 46a1 1 0 0 1 0 .87l-7.1 15a1 1 0 0 1-.91.63zm-11.4-2h10.77l6.63-14-5.39-11.15z" fill="#ffffff" fill-opacity="1"></path></g></g></svg></g></g><g opacity="1"><g id="a74206b4-0606-4dbd-855a-a753796d6cbe" transform="translate(0 0)"><svg x="270" y="630" height="90" id="svg15" width="90" version="1.1"><defs id="defs4"></defs><g id="Reference" fill-opacity="1" transform="scale(1.2)"><path id="Orange_Light_BG" d="M0 0h75v75H0z" fill="#d86613" data-name="Orange Light BG"></path><g id="Product_Icon" fill="#ffffff" data-name="Product Icon"><path class="cls-2" id="path9" d="M60.5 62.5H48.18a1 1 0 0 1-.9-.57L29.86 25.5h-7.37a1 1 0 0 1-1-1v-11a1 1 0 0 1 1-1h15.4a1 1 0 0 1 .9.57L56.13 49.5h4.37a1 1 0 0 1 1 1v11a1 1 0 0 1-1 1zm-11.69-2H59.5v-9h-4a1 1 0 0 1-.9-.57L37.26 14.5H23.5v9h7a1 1 0 0 1 .9.57z" fill="#ffffff" fill-opacity="1"></path><path class="cls-2" id="path11" d="M27.48 62.5h-13a1 1 0 0 1-.85-.47 1 1 0 0 1-.05-1l13.6-28.41a1 1 0 0 1 .9-.57 1 1 0 0 1 .9.56L35.49 46a1 1 0 0 1 0 .87l-7.1 15a1 1 0 0 1-.91.63zm-11.4-2h10.77l6.63-14-5.39-11.15z" fill="#ffffff" fill-opacity="1"></path></g></g></svg></g></g><g opacity="1"><g id="57c8bb18-0561-4a14-a5e9-483d0a60fd88" transform="translate(0 0)"><svg x="450" y="630" height="90" id="svg15" width="90" version="1.1"><defs id="defs4"></defs><g id="Reference" fill-opacity="1" transform="scale(1.2)"><path id="Orange_Light_BG" d="M0 0h75v75H0z" fill="#d86613" data-name="Orange Light BG"></path><g id="Product_Icon" fill="#ffffff" data-name="Product Icon"><path class="cls-2" id="path9" d="M60.5 62.5H48.18a1 1 0 0 1-.9-.57L29.86 25.5h-7.37a1 1 0 0 1-1-1v-11a1 1 0 0 1 1-1h15.4a1 1 0 0 1 .9.57L56.13 49.5h4.37a1 1 0 0 1 1 1v11a1 1 0 0 1-1 1zm-11.69-2H59.5v-9h-4a1 1 0 0 1-.9-.57L37.26 14.5H23.5v9h7a1 1 0 0 1 .9.57z" fill="#ffffff" fill-opacity="1"></path><path class="cls-2" id="path11" d="M27.48 62.5h-13a1 1 0 0 1-.85-.47 1 1 0 0 1-.05-1l13.6-28.41a1 1 0 0 1 .9-.57 1 1 0 0 1 .9.56L35.49 46a1 1 0 0 1 0 .87l-7.1 15a1 1 0 0 1-.91.63zm-11.4-2h10.77l6.63-14-5.39-11.15z" fill="#ffffff" fill-opacity="1"></path></g></g></svg></g></g><g opacity="1"><g id="b26fabe6-7fe1-4066-a511-d207651625b0" transform="translate(0 0)"><svg x="630" y="630" height="90" id="svg15" width="90" version="1.1"><defs id="defs4"></defs><g id="Reference" fill-opacity="1" transform="scale(1.2)"><path id="Orange_Light_BG" d="M0 0h75v75H0z" fill="#d86613" data-name="Orange Light BG"></path><g id="Product_Icon" fill="#ffffff" data-name="Product Icon"><path class="cls-2" id="path9" d="M60.5 62.5H48.18a1 1 0 0 1-.9-.57L29.86 25.5h-7.37a1 1 0 0 1-1-1v-11a1 1 0 0 1 1-1h15.4a1 1 0 0 1 .9.57L56.13 49.5h4.37a1 1 0 0 1 1 1v11a1 1 0 0 1-1 1zm-11.69-2H59.5v-9h-4a1 1 0 0 1-.9-.57L37.26 14.5H23.5v9h7a1 1 0 0 1 .9.57z" fill="#ffffff" fill-opacity="1"></path><path class="cls-2" id="path11" d="M27.48 62.5h-13a1 1 0 0 1-.85-.47 1 1 0 0 1-.05-1l13.6-28.41a1 1 0 0 1 .9-.57 1 1 0 0 1 .9.56L35.49 46a1 1 0 0 1 0 .87l-7.1 15a1 1 0 0 1-.91.63zm-11.4-2h10.77l6.63-14-5.39-11.15z" fill="#ffffff" fill-opacity="1"></path></g></g></svg></g></g><g opacity="1"><g id="e5208999-0d67-460a-a4bd-fdf061b66a83" transform="translate(0 0)"><svg x="810" y="630" height="90" id="svg15" width="90" version="1.1"><defs id="defs4"></defs><g id="Reference" fill-opacity="1" transform="scale(1.2)"><path id="Orange_Light_BG" d="M0 0h75v75H0z" fill="#d86613" data-name="Orange Light BG"></path><g id="Product_Icon" fill="#ffffff" data-name="Product Icon"><path class="cls-2" id="path9" d="M60.5 62.5H48.18a1 1 0 0 1-.9-.57L29.86 25.5h-7.37a1 1 0 0 1-1-1v-11a1 1 0 0 1 1-1h15.4a1 1 0 0 1 .9.57L56.13 49.5h4.37a1 1 0 0 1 1 1v11a1 1 0 0 1-1 1zm-11.69-2H59.5v-9h-4a1 1 0 0 1-.9-.57L37.26 14.5H23.5v9h7a1 1 0 0 1 .9.57z" fill="#ffffff" fill-opacity="1"></path><path class="cls-2" id="path11" d="M27.48 62.5h-13a1 1 0 0 1-.85-.47 1 1 0 0 1-.05-1l13.6-28.41a1 1 0 0 1 .9-.57 1 1 0 0 1 .9.56L35.49 46a1 1 0 0 1 0 .87l-7.1 15a1 1 0 0 1-.91.63zm-11.4-2h10.77l6.63-14-5.39-11.15z" fill="#ffffff" fill-opacity="1"></path></g></g></svg></g></g><g opacity="1"><g id="42edabb2-04b9-4153-9d17-e5657b3b92de" transform="translate(0 0)"><svg x="450" y="990" height="90" id="svg21" width="90" version="1.1"><defs id="defs4"></defs><g id="Reference" fill-opacity="1" transform="scale(1.2)"><path id="Blue_Light_BG" d="M0 0h75v75H0z" fill="#3b48cc" data-name="Blue Light BG"></path><g id="Product_Icon" fill="#ffffff" data-name="Product Icon"><path class="cls-2" id="path9" d="M50.25 40.48l-6.61 6.6a16.23 16.23 0 0 0 3.42-1.39 2.58 2.58 0 0 1 1.19 1.8c0 1.83-3.88 3.82-9.64 4.63a42.23 42.23 0 0 1-5.36.38h-1c-8.08-.19-14-2.74-14-5a2.58 2.58 0 0 1 1.19-1.8c3.14 1.75 8.23 2.79 13.81 2.79h.11l.56-2h-.67c-5.5 0-10.6-1.09-13.31-2.81-1.08-.71-1.68-1.48-1.69-2.15V36.9c3.06 2.34 9.16 3.56 15 3.56.79 0 1.58 0 2.35-.07l.57-2c-1 .07-1.93.1-2.92.1-8.58 0-15-2.63-15-5a2.58 2.58 0 0 1 1.19-1.8c2.76 1.55 7 2.52 11.81 2.74l.05-2c-4.73-.23-9-1.25-11.36-2.76-1.07-.69-1.67-1.47-1.69-2.15V22.9c3.06 2.34 9.16 3.56 15 3.56h.22l1.06-2h-1.28c-8.58 0-15-2.63-15-5s6.42-5 15-5a36 36 0 0 1 8.58 1h5.49c-3-1.83-8.18-3-14.07-3-8.24 0-17 2.44-17 7v8.05a4.06 4.06 0 0 0 1.51 2.95 4.07 4.07 0 0 0-1.51 3v8a4.06 4.06 0 0 0 1.51 3 4.07 4.07 0 0 0-1.51 3v8a1.25 1.25 0 0 0 0 .21c.27 4.39 8.87 6.75 17 6.75s16.73-2.36 17-6.77a.75.75 0 0 0 0-.21v-8a4 4 0 0 0-1.51-3 4.06 4.06 0 0 0 1.51-3zm-2 15c0 2.36-6.42 5-15 5s-15-2.61-15-5v-4.6c3.06 2.32 9.16 3.54 15 3.54s11.94-1.22 15-3.54z" fill="#ffffff" fill-opacity="1"></path><circle class="cls-2" id="circle11" cx="21.25" cy="27.52" fill="#ffffff" fill-opacity="1" r="1.25"></circle><circle class="cls-2" id="circle13" cx="21.25" cy="41.52" fill="#ffffff" fill-opacity="1" r="1.25"></circle><circle class="cls-2" id="circle15" cx="21.25" cy="55.52" fill="#ffffff" fill-opacity="1" r="1.25"></circle><path class="cls-2" id="path17" d="M35.75 51.48a1 1 0 0 1-.5-.14 1 1 0 0 1-.46-1.15l5.62-18.71h-5.66a1 1 0 0 1-.89-1.48l6-12a1 1 0 0 1 .89-.55h13a1 1 0 0 1 1 1.31l-2.56 7.69h5.61a1 1 0 0 1 .72 1.69l-22 23a1 1 0 0 1-.77.34zm.62-22h5.38a1 1 0 0 1 .8.4 1 1 0 0 1 .16.88l-4.81 16 17.51-18.3h-4.66a1 1 0 0 1-1-1.32l2.56-7.68h-11z" fill="#ffffff" fill-opacity="1"></path></g></g></svg></g></g></g><g pointer-events="auto"></g><g pointer-events="auto"></g><g pointer-events="auto"><g opacity="1"><g id="5d3a7fd7-2250-4c80-9141-694a521e490d"><svg x="67" y="720" overflow="visible"><text stroke="#ffffff" stroke-width="4" font-family="Open Sans" y="36.5" font-size="25pt" fill="#f5b720" font-weight="bold" transform="" xml:space="preserve"><tspan x="8" dy="0">Create</tspan><tspan x="8" dy="1.1em"> </tspan></text><text font-family="Open Sans" y="36.5" font-size="25pt" fill="#f5b720" font-weight="bold" transform="" xml:space="preserve"><tspan x="8" dy="0">Create</tspan><tspan x="8" dy="1.1em"> </tspan></text></svg></g></g><g opacity="1"><g id="b7e6121b-0a93-467b-9d8f-be3d0c656f0f"><svg x="248" y="720" overflow="visible"><text stroke="#ffffff" stroke-width="4" font-family="Open Sans" y="36.5" font-size="25pt" fill="#f5b720" font-weight="bold" transform="" xml:space="preserve"><tspan x="8" dy="0">Read</tspan></text><text font-family="Open Sans" y="36.5" font-size="25pt" fill="#f5b720" font-weight="bold" transform="" xml:space="preserve"><tspan x="8" dy="0">Read</tspan></text></svg></g></g><g opacity="1"><g id="ee0df6ac-deda-40de-837a-006304a94efd"><svg x="428" y="720" overflow="visible"><text stroke="#ffffff" stroke-width="4" font-family="Open Sans" y="36.5" font-size="25pt" fill="#f5b720" font-weight="bold" transform="" xml:space="preserve"><tspan x="8" dy="0">List</tspan></text><text font-family="Open Sans" y="36.5" font-size="25pt" fill="#f5b720" font-weight="bold" transform="" xml:space="preserve"><tspan x="8" dy="0">List</tspan></text></svg></g></g><g opacity="1"><g id="f5080ffb-6840-44bb-a583-d3c22ede8b20"><svg x="608" y="720" overflow="visible"><text stroke="#ffffff" stroke-width="4" font-family="Open Sans" y="36.5" font-size="25pt" fill="#f5b720" font-weight="bold" transform="" xml:space="preserve"><tspan x="8" dy="0">Update</tspan></text><text font-family="Open Sans" y="36.5" font-size="25pt" fill="#f5b720" font-weight="bold" transform="" xml:space="preserve"><tspan x="8" dy="0">Update</tspan></text></svg></g></g><g opacity="1"><g id="1dc452d3-b37b-47a6-a134-df6050a41957"><svg x="788" y="720" overflow="visible"><text stroke="#ffffff" stroke-width="4" font-family="Open Sans" y="36.5" font-size="25pt" fill="#f5b720" font-weight="bold" transform="" xml:space="preserve"><tspan x="8" dy="0">Delete</tspan></text><text font-family="Open Sans" y="36.5" font-size="25pt" fill="#f5b720" font-weight="bold" transform="" xml:space="preserve"><tspan x="8" dy="0">Delete</tspan></text></svg></g></g></g><g></g></g></svg>